HIERARCHY
ROOT Hips
{
	OFFSET 0.000000 100.481300 0.000000
	CHANNELS 6 Xposition Yposition Zposition Xrotation Yrotation Zrotation
	JOINT Spine
	{
		OFFSET -0.279200 12.230698 -2.892100
		CHANNELS 3 Xrotation Yrotation Zrotation
		JOINT Spine1
		{
			OFFSET -0.325700 14.269203 -3.374200
			CHANNELS 3 Xrotation Yrotation Zrotation
			JOINT Spine2
			{
				OFFSET -0.372300 16.307602 -0.352600
				CHANNELS 3 Xrotation Yrotation Zrotation
				JOINT Neck
				{
					OFFSET -0.418800 17.814194 8.416900
					CHANNELS 3 Xrotation Yrotation Zrotation
					JOINT Head
					{
						OFFSET 0.000000 7.031097 3.806800
						CHANNELS 3 Xrotation Yrotation Zrotation
						JOINT HeadTop_End
						{
							OFFSET 0.000000 24.646606 12.978600
							CHANNELS 3 Xrotation Yrotation Zrotation
							End Site
							{
								OFFSET 0.000000 27.854965 0.000000
							}
						}
					}
				}
				JOINT LeftShoulder
				{
					OFFSET 16.952999 14.495407 -7.737500
					CHANNELS 3 Xrotation Yrotation Zrotation
					JOINT LeftArm
					{
						OFFSET 9.308998 -2.777710 0.208600
						CHANNELS 3 Xrotation Yrotation Zrotation
						JOINT LeftForeArm
						{
							OFFSET 29.972298 0.000000 0.000000
							CHANNELS 3 Xrotation Yrotation Zrotation
							JOINT LeftHand
							{
								OFFSET 26.026505 0.000000 0.000000
								CHANNELS 3 Xrotation Yrotation Zrotation
								JOINT LeftHandThumb1
								{
									OFFSET 12.240501 -7.147949 9.207150
									CHANNELS 3 Xrotation Yrotation Zrotation
									JOINT LeftHandThumb2
									{
										OFFSET 4.138618 -2.389435 2.389433
										CHANNELS 3 Xrotation Yrotation Zrotation
										JOINT LeftHandThumb3
										{
											OFFSET 2.726913 -1.574387 1.574386
											CHANNELS 3 Xrotation Yrotation Zrotation
											JOINT LeftHandThumb4
											{
												OFFSET 3.941010 -2.275345 2.275342
												CHANNELS 3 Xrotation Yrotation Zrotation
												End Site
												{
													OFFSET -0.005798 5.087799 0.009903
												}
											}
										}
									}
								}
								JOINT LeftHandIndex1
								{
									OFFSET 24.424698 -1.985611 5.953459
									CHANNELS 3 Xrotation Yrotation Zrotation
									JOINT LeftHandIndex2
									{
										OFFSET 6.426697 0.000000 0.000000
										CHANNELS 3 Xrotation Yrotation Zrotation
										JOINT LeftHandIndex3
										{
											OFFSET 5.337898 0.000000 0.000000
											CHANNELS 3 Xrotation Yrotation Zrotation
											JOINT LeftHandIndex4
											{
												OFFSET 4.409401 0.000000 0.000000
												CHANNELS 3 Xrotation Yrotation Zrotation
												End Site
												{
													OFFSET 0.000000 4.409363 0.014373
												}
											}
										}
									}
								}
								JOINT LeftHandMiddle1
								{
									OFFSET 23.810104 0.000000 0.000000
									CHANNELS 3 Xrotation Yrotation Zrotation
									JOINT LeftHandMiddle2
									{
										OFFSET 7.176498 0.000000 0.000000
										CHANNELS 3 Xrotation Yrotation Zrotation
										JOINT LeftHandMiddle3
										{
											OFFSET 6.774902 0.000000 0.000000
											CHANNELS 3 Xrotation Yrotation Zrotation
											JOINT LeftHandMiddle4
											{
												OFFSET 5.403328 0.000000 0.000000
												CHANNELS 3 Xrotation Yrotation Zrotation
												End Site
												{
													OFFSET -0.027702 5.403244 0.017414
												}
											}
										}
									}
								}
								JOINT LeftHandRing1
								{
									OFFSET 22.908401 -0.839279 -6.020567
									CHANNELS 3 Xrotation Yrotation Zrotation
									JOINT LeftHandRing2
									{
										OFFSET 6.337502 0.000000 0.000000
										CHANNELS 3 Xrotation Yrotation Zrotation
										JOINT LeftHandRing3
										{
											OFFSET 5.779297 0.000000 0.000000
											CHANNELS 3 Xrotation Yrotation Zrotation
											JOINT LeftHandRing4
											{
												OFFSET 4.965698 0.000000 0.000000
												CHANNELS 3 Xrotation Yrotation Zrotation
												End Site
												{
													OFFSET 0.000000 4.965668 0.016186
												}
											}
										}
									}
								}
								JOINT LeftHandPinky1
								{
									OFFSET 20.037003 -1.530319 -10.950146
									CHANNELS 3 Xrotation Yrotation Zrotation
									JOINT LeftHandPinky2
									{
										OFFSET 5.254700 0.000000 0.000000
										CHANNELS 3 Xrotation Yrotation Zrotation
										JOINT LeftHandPinky3
										{
											OFFSET 4.810204 0.000000 0.000000
											CHANNELS 3 Xrotation Yrotation Zrotation
											JOINT LeftHandPinky4
											{
												OFFSET 3.647202 0.000000 0.000000
												CHANNELS 3 Xrotation Yrotation Zrotation
												End Site
												{
													OFFSET 0.000000 3.647186 0.011889
												}
											}
										}
									}
								}
							}
						}
					}
				}
				JOINT RightShoulder
				{
					OFFSET -15.141001 14.495407 -7.737500
					CHANNELS 3 Xrotation Yrotation Zrotation
					JOINT RightArm
					{
						OFFSET -9.308998 -2.777710 0.208500
						CHANNELS 3 Xrotation Yrotation Zrotation
						JOINT RightForeArm
						{
							OFFSET -29.972300 0.000000 0.000000
							CHANNELS 3 Xrotation Yrotation Zrotation
							JOINT RightHand
							{
								OFFSET -26.026505 0.000000 0.000000
								CHANNELS 3 Xrotation Yrotation Zrotation
								JOINT RightHandThumb1
								{
									OFFSET -12.240601 -7.148026 9.207092
									CHANNELS 3 Xrotation Yrotation Zrotation
									JOINT RightHandThumb2
									{
										OFFSET -4.138618 -2.389435 2.389433
										CHANNELS 3 Xrotation Yrotation Zrotation
										JOINT RightHandThumb3
										{
											OFFSET -2.726974 -1.574417 1.574421
											CHANNELS 3 Xrotation Yrotation Zrotation
											JOINT RightHandThumb4
											{
												OFFSET -3.941010 -2.275345 2.275343
												CHANNELS 3 Xrotation Yrotation Zrotation
												End Site
												{
													OFFSET 0.005814 5.087799 0.009927
												}
											}
										}
									}
								}
								JOINT RightHandIndex1
								{
									OFFSET -24.424698 -1.985657 5.953444
									CHANNELS 3 Xrotation Yrotation Zrotation
									JOINT RightHandIndex2
									{
										OFFSET -6.426697 0.000000 0.000000
										CHANNELS 3 Xrotation Yrotation Zrotation
										JOINT RightHandIndex3
										{
											OFFSET -5.337898 0.000000 0.000000
											CHANNELS 3 Xrotation Yrotation Zrotation
											JOINT RightHandIndex4
											{
												OFFSET -4.409401 0.000000 0.000000
												CHANNELS 3 Xrotation Yrotation Zrotation
												End Site
												{
													OFFSET 0.000000 4.409363 0.014408
												}
											}
										}
									}
								}
								JOINT RightHandMiddle1
								{
									OFFSET -23.810097 0.000000 0.000000
									CHANNELS 3 Xrotation Yrotation Zrotation
									JOINT RightHandMiddle2
									{
										OFFSET -7.176498 0.000000 0.000000
										CHANNELS 3 Xrotation Yrotation Zrotation
										JOINT RightHandMiddle3
										{
											OFFSET -6.774902 0.000000 0.000000
											CHANNELS 3 Xrotation Yrotation Zrotation
											JOINT RightHandMiddle4
											{
												OFFSET -5.403328 0.000000 0.000000
												CHANNELS 3 Xrotation Yrotation Zrotation
												End Site
												{
													OFFSET 0.027702 5.403244 0.017457
												}
											}
										}
									}
								}
								JOINT RightHandRing1
								{
									OFFSET -22.908302 -0.839325 -6.020576
									CHANNELS 3 Xrotation Yrotation Zrotation
									JOINT RightHandRing2
									{
										OFFSET -6.337502 0.000000 0.000000
										CHANNELS 3 Xrotation Yrotation Zrotation
										JOINT RightHandRing3
										{
											OFFSET -5.779297 0.000000 0.000000
											CHANNELS 3 Xrotation Yrotation Zrotation
											JOINT RightHandRing4
											{
												OFFSET -4.965698 0.000000 0.000000
												CHANNELS 3 Xrotation Yrotation Zrotation
												End Site
												{
													OFFSET 0.000000 4.965668 0.016226
												}
											}
										}
									}
								}
								JOINT RightHandPinky1
								{
									OFFSET -20.037003 -1.530334 -10.950259
									CHANNELS 3 Xrotation Yrotation Zrotation
									JOINT RightHandPinky2
									{
										OFFSET -5.254700 0.000000 0.000000
										CHANNELS 3 Xrotation Yrotation Zrotation
										JOINT RightHandPinky3
										{
											OFFSET -4.810204 0.000000 0.000000
											CHANNELS 3 Xrotation Yrotation Zrotation
											JOINT RightHandPinky4
											{
												OFFSET -3.647202 0.000000 0.000000
												CHANNELS 3 Xrotation Yrotation Zrotation
												End Site
												{
													OFFSET 0.000000 3.647186 0.011917
												}
											}
										}
									}
								}
							}
						}
					}
				}
			}
		}
	}
	JOINT LeftUpLeg
	{
		OFFSET 15.427100 -6.655098 0.678600
		CHANNELS 3 Xrotation Yrotation Zrotation
		JOINT LeftLeg
		{
			OFFSET 4.081073 -39.591068 13.024000
			CHANNELS 3 Xrotation Yrotation Zrotation
			JOINT LeftFoot
			{
				OFFSET -4.081074 -37.707932 -15.979700
				CHANNELS 3 Xrotation Yrotation Zrotation
				JOINT LeftToeBase
				{
					OFFSET 5.346399 -15.068900 20.645000
					CHANNELS 3 Xrotation Yrotation Zrotation
					JOINT LeftToe_End
					{
						OFFSET 2.754700 0.931300 11.300900
						CHANNELS 3 Xrotation Yrotation Zrotation
						End Site
						{
							OFFSET 0.000000 11.669021 0.000000
						}
					}
				}
			}
		}
	}
	JOINT RightUpLeg
	{
		OFFSET -15.569500 -6.655098 0.678600
		CHANNELS 3 Xrotation Yrotation Zrotation
		JOINT RightLeg
		{
			OFFSET -4.081825 -39.591045 13.023800
			CHANNELS 3 Xrotation Yrotation Zrotation
			JOINT RightFoot
			{
				OFFSET 4.081824 -37.707954 -15.979600
				CHANNELS 3 Xrotation Yrotation Zrotation
				JOINT RightToeBase
				{
					OFFSET -5.346400 -15.068900 20.645000
					CHANNELS 3 Xrotation Yrotation Zrotation
					JOINT RightToe_End
					{
						OFFSET -2.754700 0.931300 11.300900
						CHANNELS 3 Xrotation Yrotation Zrotation
						End Site
						{
							OFFSET 0.000000 11.669021 0.000000
						}
					}
				}
			}
		}
	}
}
MOTION
Frames: 4
Frame Time: 0.033333
0.564316 49.295044 16.302229 0.145634 0.084590 0.843647 10.430288 0.113444 -1.467275 -0.199258 0.213327 -0.355465 -0.199585 0.248527 -0.300881 -1.001770 -1.284342 0.469464 -8.883494 -4.327064 -5.321562 0.000000 -0.000000 -0.000000 0.823520 -15.262025 -7.868749 4.746721 -21.216436 -54.862231 0.000027 -62.197499 0.000033 31.062946 4.315271 41.770227 6.610620 1.798230 20.801495 2.716390 20.172574 -24.389164 -5.537247 29.849525 5.070895 0.000001 -0.000002 -0.000001 -0.235307 2.798388 -26.913105 0.396832 2.121274 -21.189296 0.083126 0.984462 -9.653141 0.000001 0.000001 -0.000001 1.299149 7.334272 -16.511270 0.329950 1.940061 -19.301990 0.233124 1.637763 -16.201257 0.000000 0.000001 -0.000002 1.797303 9.807877 -14.184298 0.205910 1.541064 -15.220047 0.265316 1.744712 -17.292065 0.000003 -0.000003 0.000000 2.041311 10.867557 -13.918938 0.168513 1.396425 -13.761338 0.107169 1.116564 -10.963884 -0.000001 -0.000000 -0.000001 3.171094 -4.378723 8.782886 -3.950246 37.253389 63.733643 0.000012 55.137918 -0.000010 43.537303 4.741040 -36.277911 -9.383502 -1.613361 -17.604726 3.557099 -24.337031 34.656837 -6.608465 -37.497312 -11.176173 -0.000004 -0.000003 0.000001 2.957824 1.012836 13.529994 0.472466 -2.045701 26.006744 0.059744 -0.744410 9.177801 -0.000001 0.000001 0.000000 0.105539 -3.665054 2.525360 0.584993 -2.261696 29.000570 0.020475 -0.436576 5.367141 -0.000002 0.000003 -0.000002 0.456432 -7.644385 4.305910 0.107465 -0.995734 12.319036 0.072393 -0.818808 10.104471 0.000001 0.000000 -0.000001 -11.162325 -10.227909 7.169808 0.029118 -0.520525 6.403062 0.028648 -0.516314 6.351268 -0.000003 0.000000 -0.000000 -86.312035 -11.434243 18.501454 79.645641 -0.700148 -3.144229 9.214809 -6.278831 -9.761168 -0.103121 -0.000002 -0.000000 -0.000000 0.000000 -0.000000 -88.057743 12.723557 -14.133511 80.264886 0.661605 1.242919 10.522957 -0.517876 10.738292 -0.191612 -0.000001 -0.000004 0.000000 0.000000 -0.000000 
0.600954 49.321472 16.282368 0.089777 0.256320 0.906502 10.396926 0.433083 -1.336292 -0.270754 0.730483 -0.000669 -0.269083 0.765652 0.054953 -1.570815 -1.473527 -0.063487 -7.291054 -5.968776 -5.070110 0.000000 0.000000 0.000000 -0.559389 -13.599079 -8.168775 5.197672 -25.919292 -54.774460 -0.000006 -59.175611 -0.000027 29.572629 3.122024 42.343898 5.972910 1.740805 21.105056 2.907585 20.216055 -25.087360 -5.597177 29.681215 5.272683 -0.000003 -0.000003 -0.000002 -0.308518 2.729161 -26.522958 0.401988 2.134555 -21.328394 0.085534 0.998465 -9.791950 0.000001 0.000002 -0.000001 1.246234 7.257277 -16.029488 0.334640 1.953418 -19.440370 0.236944 1.650860 -16.334433 -0.000001 0.000000 -0.000001 1.749343 9.772390 -13.835247 0.210618 1.558244 -15.394169 0.270723 1.761966 -17.468743 -0.000000 -0.000001 0.000001 1.965957 10.827183 -13.560916 0.167438 1.391985 -13.716734 0.106302 1.112089 -10.919490 -0.000003 -0.000000 -0.000002 3.149208 -5.602730 5.203402 -0.196183 38.036449 60.534874 -0.000011 57.456309 0.000011 38.272893 8.177601 -32.695190 -9.312907 2.453439 -17.821242 4.266702 -24.256466 39.632039 -2.246219 -34.124175 -7.672726 -0.000001 0.000000 0.000002 2.087711 1.637593 11.175135 0.466148 -2.032718 25.829197 0.063726 -0.768539 9.477993 -0.000001 0.000001 0.000001 0.111151 -4.544040 1.558792 0.326363 -1.714338 21.555806 0.038202 -0.595968 7.336257 0.000002 -0.000003 -0.000001 -0.071154 -9.360180 -1.252686 0.047885 -0.666826 8.214041 0.148870 -1.169277 14.510479 0.000002 0.000001 -0.000000 -8.232666 -11.163406 1.194107 0.002781 -0.161134 1.978402 0.000065 -0.023121 0.283880 -0.000002 -0.000002 0.000002 -86.307397 -11.337213 18.081466 79.585378 -0.694312 -3.041900 9.260033 -6.043408 -9.773304 -0.108192 0.000001 -0.000001 0.000000 0.000000 -0.000000 -87.936391 12.744162 -14.396207 80.249054 0.739415 1.255584 10.501786 -0.513875 10.723296 -0.205711 -0.000000 0.000001 0.000000 0.000000 0.000000 
0.604180 49.346336 16.280018 0.014694 0.607224 1.085167 10.324496 0.662230 -1.277440 -0.421961 1.097710 0.169499 -0.419297 1.133270 0.226034 -2.074002 -1.582468 -0.490446 -5.189018 -7.125425 -4.660852 -0.000000 0.000000 0.000000 -1.872777 -13.124204 -8.453310 6.354212 -28.718213 -54.367189 0.000010 -57.252640 0.000015 28.182479 2.306680 42.741920 5.226185 1.698145 21.448022 3.110921 20.276130 -25.843727 -5.656215 29.498501 5.483567 -0.000001 -0.000003 -0.000000 -0.383276 2.656954 -26.137262 0.407915 2.149629 -21.486800 0.088318 1.014447 -9.950152 0.000001 0.000001 0.000000 1.194917 7.171599 -15.596276 0.339966 1.968410 -19.595695 0.241327 1.665745 -16.485987 -0.000003 0.000000 -0.000003 1.708570 9.739010 -13.543232 0.216264 1.578620 -15.600550 0.277168 1.782326 -17.677235 0.000001 0.000000 -0.000002 1.916277 10.807220 -13.268343 0.166489 1.388098 -13.677654 0.105544 1.108148 -10.880375 -0.000000 0.000000 -0.000001 3.140213 -6.886972 1.480936 3.968465 38.533219 57.022647 -0.000045 61.608894 0.000062 31.767640 10.826475 -26.666213 -10.769889 5.290004 -18.046873 7.204034 -25.481474 46.464254 -0.028356 -30.366553 -6.646409 0.000001 0.000000 -0.000001 1.480337 2.262379 9.025232 0.451717 -2.002648 25.419328 0.050476 -0.684531 8.433988 0.000001 0.000000 -0.000000 0.145847 -5.204519 1.857007 0.187945 -1.311005 16.315809 0.061737 -0.756625 9.329820 -0.000000 -0.000003 -0.000000 -0.548905 -10.581132 -4.399886 0.011000 -0.320284 3.934879 0.221146 -1.419470 17.709084 0.000002 0.000001 -0.000000 -5.174552 -12.469284 -6.456092 0.000013 -0.005147 0.063135 0.001296 0.110276 -1.353816 -0.000001 -0.000001 -0.000001 -86.275316 -11.078993 17.600713 79.434082 -0.694197 -2.986579 9.349458 -5.915444 -9.739764 -0.122017 0.000002 0.000002 0.000000 -0.000000 -0.000000 -87.798346 12.876096 -14.861826 80.363623 0.818594 1.283353 10.394586 -0.512928 10.635418 -0.198527 0.000003 0.000002 -0.000000 0.000001 -0.000000 
0.551986 49.331558 16.302872 0.000390 0.993038 1.283974 10.202679 0.755996 -1.288198 -0.671904 1.239000 0.136754 -0.669043 1.275814 0.193952 -2.391646 -1.579670 -0.712850 -2.916681 -7.522028 -4.255376 0.000000 -0.000000 0.000000 -3.007391 -13.605681 -8.116263 8.124030 -29.883683 -54.069342 0.000002 -56.497207 0.000013 26.600952 2.138484 43.394763 4.357798 1.668670 21.832496 3.327751 20.355273 -26.663855 -5.713796 29.300060 5.704148 -0.000001 -0.000004 0.000000 -0.449563 2.576732 -25.757516 0.414688 2.166744 -21.666477 0.091529 1.032600 -10.130216 -0.000000 -0.000001 -0.000001 1.145362 7.076447 -15.217014 0.346015 1.985326 -19.771349 0.246357 1.682664 -16.658230 -0.000000 0.000001 0.000001 1.675789 9.708161 -13.315558 0.223008 1.602553 -15.843339 0.284816 1.806139 -17.921593 -0.000001 0.000001 -0.000000 1.893024 10.811256 -13.049344 0.165688 1.384816 -13.644546 0.104899 1.104806 -10.847214 -0.000002 -0.000001 -0.000001 2.683848 -8.351690 -2.501005 9.293099 38.711917 52.452226 0.000035 68.694047 -0.000025 23.659516 11.784582 -18.920684 -12.606483 6.407763 -18.249053 11.301919 -27.151230 53.458108 0.668106 -27.578137 -7.075486 0.000000 -0.000001 0.000001 1.208560 2.392920 10.758897 0.507913 -2.116794 26.983108 0.056000 -0.720678 8.882877 -0.000000 0.000001 0.000002 0.423776 -5.916484 6.218708 0.215353 -1.401268 17.474283 0.135448 -1.116099 13.836738 -0.000001 -0.000001 -0.000001 0.061071 -11.594318 -0.298845 0.023130 -0.463986 5.705149 0.417232 -1.928464 24.414270 0.000001 -0.000001 -0.000001 -3.504133 -15.273242 -10.935391 0.042684 -0.629726 7.754244 0.043079 -0.632647 7.790445 -0.000001 0.000000 -0.000002 -86.304085 -10.791380 17.370009 79.268396 -0.699640 -3.023484 9.477288 -6.046866 -9.699733 -0.137286 0.000002 -0.000001 -0.000000 0.000001 -0.000000 -87.815373 13.039326 -15.266465 80.579703 0.876358 1.316558 10.271770 -0.505193 10.465603 -0.172390 -0.000002 -0.000003 0.000000 0.000000 -0.000000 
